{
  "accessors": [
    {
      "bufferView": 2,
      "componentType": 5126,
      "count": 65532,
      "max": [
        22.15521240234375,
        13.013134002685547,
        55.035858154296875
      ],
      "min": [
        -27.561485290527344,
        -13.890426635742188,
        -5.7421035766601562
      ],
      "type": "VEC3"
    },
    {
      "bufferView": 2,
      "byteOffset": 786384,
      "componentType": 5126,
      "count": 65532,
      "max": [
        0.99999982118606567,
        0.99999856948852539,
        0.99998027086257935
      ],
      "min": [
        -0.99998515844345093,
        -0.99999898672103882,
        -0.99967491626739502
      ],
      "type": "VEC3"
    },
    {
      "bufferView": 3,
      "componentType": 5126,
      "count": 65532,
      "max": [
        0.99999994039535522,
        0.99999666213989258,
        0.99972862005233765,
        1
      ],
      "min": [
        -0.99999982118606567,
        -0.99999773502349854,
        -0.99942249059677124,
        -1
      ],
      "type": "VEC4"
    },
    {
      "bufferView": 1,
      "componentType": 5126,
      "count": 65532,
      "max": [
        0.99778681993484497,
        0.99756836891174316
      ],
      "min": [
        0.0021986817009747028,
        0.059394955635070801
      ],
      "type": "VEC2"
    },
    {
      "bufferView": 0,
      "componentType": 5125,
      "count": 362886,
      "max": [
        65531
      ],
      "min": [
        0
      ],
      "type": "SCALAR"
    },
    {
      "bufferView": 2,
      "byteOffset": 1572768,
      "componentType": 5126,
      "count": 48101,
      "max": [
        27.46278190612793,
        11.128945350646973,
        55.554805755615234
      ],
      "min": [
        -27.508499145507812,
        -13.88897705078125,
        -5.7421035766601562
      ],
      "type": "VEC3"
    },
    {
      "bufferView": 2,
      "byteOffset": 2149980,
      "componentType": 5126,
      "count": 48101,
      "max": [
        0.99997079372406006,
        0.999805748462677,
        0.99987542629241943
      ],
      "min": [
        -0.99999505281448364,
        -0.99999898672103882,
        -0.99997782707214355
      ],
      "type": "VEC3"
    },
    {
      "bufferView": 3,
      "byteOffset": 1048512,
      "componentType": 5126,
      "count": 48101,
      "max": [
        0.9999995231628418,
        0.99999994039535522,
        0.98984646797180176,
        1
      ],
      "min": [
        -0.99999523162841797,
        -0.99999654293060303,
        -0.99889457225799561,
        -1
      ],
      "type": "VEC4"
    },
    {
      "bufferView": 1,
      "byteOffset": 524256,
      "componentType": 5126,
      "count": 48101,
      "max": [
        0.99731683731079102,
        0.99704819917678833
      ],
      "min": [
        0.0022073159925639629,
        0.014407157897949219
      ],
      "type": "VEC2"
    },
    {
      "bufferView": 0,
      "byteOffset": 1451544,
      "componentType": 5125,
      "count": 256602,
      "max": [
        48100
      ],
      "min": [
        0
      ],
      "type": "SCALAR"
    }
  ],
  "asset": {
    "extras": {
      "author": "lukedew99 (https://sketchfab.com/lukedew99)",
      "license": "CC-BY-4.0 (http://creativecommons.org/licenses/by/4.0/)",
      "source": "https://sketchfab.com/3d-models/tshirt-493ccd4e2b6a443c87ba4264fe7cadfa",
      "title": "Tshirt"
    },
    "generator": "Sketchfab-4.54.1",
    "version": "2.0"
  },
  "bufferViews": [
    {
      "buffer": 0,
      "byteLength": 2477952,
      "byteOffset": 0,
      "name": "floatBufferViews",
      "target": 34963
    },
    {
      "buffer": 0,
      "byteLength": 909064,
      "byteOffset": 2477952,
      "byteStride": 8,
      "name": "floatBufferViews",
      "target": 34962
    },
    {
      "buffer": 0,
      "byteLength": 2727192,
      "byteOffset": 3387016,
      "byteStride": 12,
      "name": "floatBufferViews",
      "target": 34962
    },
    {
      "buffer": 0,
      "byteLength": 1818128,
      "byteOffset": 6114208,
      "byteStride": 16,
      "name": "floatBufferViews",
      "target": 34962
    }
  ],
  "buffers": [
    {
      "byteLength": 7932336,
      "uri": "scene.bin"
    }
  ],
  "materials": [
    {
      "doubleSided": true,
      "name": "Shirt",
      "pbrMetallicRoughness": {
        "baseColorFactor": [
          0.98,
          0.7,
          0.3,
          1
        ],
        "metallicFactor": 0,
        "roughnessFactor": 0.59999999999999998
      }
    }
  ],
  "meshes": [
    {
      "primitives": [
        {
          "attributes": {
            "NORMAL": 1,
            "POSITION": 0,
            "TANGENT": 2,
            "TEXCOORD_0": 3
          },
          "indices": 4,
          "material": 0,
          "mode": 4
        }
      ]
    },
    {
      "primitives": [
        {
          "attributes": {
            "NORMAL": 6,
            "POSITION": 5,
            "TANGENT": 7,
            "TEXCOORD_0": 8
          },
          "indices": 9,
          "material": 0,
          "mode": 4
        }
      ]
    }
  ],
  "nodes": [
    {
      "children": [
        1
      ],
      "name": "RootNode (gltf orientation matrix)",
      "rotation": [
        -0.70710678118654746,
        -0,
        -0,
        0.70710678118654757
      ]
    },
    {
      "children": [
        2
      ],
      "name": "RootNode (model correction matrix)"
    },
    {
      "children": [
        3,
        4
      ],
      "name": "Tshirt.obj.cleaner.materialmerger.gles"
    },
    {
      "mesh": 0,
      "name": ""
    },
    {
      "mesh": 1,
      "name": ""
    }
  ],
  "scene": 0,
  "scenes": [
    {
      "name": "OSG_Scene",
      "nodes": [
        0
      ]
    }
  ]
}

